# xmcd
#
# Track frame offsets: 
#        150
#        20402
#        47832
#        95201
#        108570
#        140698
#        162502
#        180309
#        194781
#        214845
#        231798
#        247953
#        278484
#
# Disc length: 4191 seconds
#
# Revision: 11
# Processed by: cddbd v1.5.2PL0 Copyright (c) Steve Scherf et al.
# Submitted via: ExactAudioCopy v0.95b4
#
DISCID=be105d0d
DTITLE=Fleetwood Mac - Live at The Boston Tea Party [Disc 3]
DYEAR=1970
DGENRE=Blues
TTITLE0=Jumping at Shadows
TTITLE1=Sandy Mary
TTITLE2=If You Let Me Love You
TTITLE3=Loving Kind
TTITLE4=Coming Your Way
TTITLE5=Madison Blues
TTITLE6=Got to Move
TTITLE7=The Sun Is Shining
TTITLE8=Oh Baby
TTITLE9=Tiger
TTITLE10=Great Balls of Fire
TTITLE11=Tutti Frutti
TTITLE12=On We Jam
EXTD=YEAR: 1970
EXTT0=
EXTT1=
EXTT2=
EXTT3=
EXTT4=
EXTT5=
EXTT6=
EXTT7=
EXTT8=
EXTT9=
EXTT10=
EXTT11=
EXTT12=
PLAYORDER=
